<?xml version="1.0" encoding="UTF-8"?>
<svg xmlns="http://www.w3.org/2000/svg" xmlns:xlink="http://www.w3.org/1999/xlink" width="50px" height="px" viewBox="0 0 50 50" version="1.1">
<g id="surface1">
<path style=" stroke:none;fill-rule:nonzero;fill:#3f79a8;fill-opacity:1;" d="M 39.582031 0 L 10.417969 0 C 4.664062 0 0 4.664062 0 10.417969 L 0 39.582031 C 0 45.335938 4.664062 50 10.417969 50 L 39.582031 50 C 45.335938 50 50 45.335938 50 39.582031 L 50 10.417969 C 50 4.664062 45.335938 0 39.582031 0 Z M 30.277344 40.8125 C 29.433594 40.976562 29.167969 40.457031 29.167969 40.011719 L 29.167969 35.441406 C 29.167969 33.882812 28.621094 32.871094 28.019531 32.355469 C 31.734375 31.941406 35.632812 30.53125 35.632812 24.132812 C 35.632812 22.308594 34.984375 20.824219 33.917969 19.660156 C 34.089844 19.238281 34.660156 17.542969 33.753906 15.246094 C 33.753906 15.246094 32.355469 14.800781 29.175781 16.957031 C 27.839844 16.582031 26.417969 16.398438 25 16.390625 C 23.582031 16.398438 22.160156 16.582031 20.828125 16.953125 C 17.644531 14.796875 16.242188 15.242188 16.242188 15.242188 C 15.339844 17.539062 15.910156 19.234375 16.082031 19.65625 C 15.015625 20.824219 14.367188 22.308594 14.367188 24.128906 C 14.367188 30.511719 18.257812 31.945312 21.960938 32.367188 C 21.484375 32.785156 21.050781 33.515625 20.902344 34.597656 C 19.949219 35.019531 17.539062 35.757812 16.050781 33.207031 C 16.050781 33.207031 15.171875 31.609375 13.496094 31.488281 C 13.496094 31.488281 11.871094 31.46875 13.382812 32.503906 C 13.382812 32.503906 14.476562 33.015625 15.234375 34.941406 C 15.234375 34.941406 16.199219 37.917969 20.832031 36.910156 L 20.832031 40.011719 C 20.832031 40.449219 20.566406 40.964844 19.734375 40.8125 C 13.109375 38.609375 8.332031 32.363281 8.332031 25 C 8.332031 15.792969 15.796875 8.332031 25 8.332031 C 34.203125 8.332031 41.667969 15.792969 41.667969 25 C 41.667969 32.359375 36.898438 38.605469 30.277344 40.8125 Z M 30.277344 40.8125 "/>
</g>
</svg>
