<?xml version="1.0" encoding="UTF-8"?>
<svg xmlns="http://www.w3.org/2000/svg" xmlns:xlink="http://www.w3.org/1999/xlink" width="50px" height="px" viewBox="0 0 50 50" version="1.1">
<g id="surface1">
<path style=" stroke:none;fill-rule:nonzero;fill:#3f79a8;fill-opacity:1;" d="M 39.582031 0 L 10.417969 0 C 4.664062 0 0 4.664062 0 10.417969 L 0 39.582031 C 0 45.335938 4.664062 50 10.417969 50 L 39.582031 50 C 45.335938 50 50 45.335938 50 39.582031 L 50 10.417969 C 50 4.664062 45.335938 0 39.582031 0 Z M 16.667969 39.582031 L 10.417969 39.582031 L 10.417969 16.667969 L 16.667969 16.667969 Z M 13.542969 14.023438 C 11.527344 14.023438 9.894531 12.378906 9.894531 10.351562 C 9.894531 8.320312 11.527344 6.675781 13.542969 6.675781 C 15.554688 6.675781 17.1875 8.320312 17.1875 10.351562 C 17.1875 12.378906 15.554688 14.023438 13.542969 14.023438 Z M 41.667969 39.582031 L 35.417969 39.582031 L 35.417969 27.910156 C 35.417969 20.890625 27.082031 21.421875 27.082031 27.910156 L 27.082031 39.582031 L 20.832031 39.582031 L 20.832031 16.667969 L 27.082031 16.667969 L 27.082031 20.34375 C 29.992188 14.957031 41.667969 14.558594 41.667969 25.503906 Z M 41.667969 39.582031 "/>
</g>
</svg>
